PathFileType	4	(X/Y/Z)	c:/Users/goper/Files/vsCode/490R/osim_files/C06/C06_Static_02.trc
DataRate	CameraRate	NumFrames	NumMarkers	Units                	OrigDataRate	OrigDataStartFrame	OrigNumFrames
250.00	250.00	8	36	mm	250.0	343	1368
                Frame#	Time	LPSIS			LASIS			LTH1			LTH2			LTH3			LTH4			LLFE			LMFE			LSH1			LSH2			LSH3			LSH4			LLMAL			LMMAL			LCAL			LMTP5			LTOE			LMTP1			RPSIS			RASIS			RTH1			RTH2			RTH3			RTH4			RLFE			RMFE			RSH1			RSH2			RSH3			RSH4			RLMAL			RMMAL			RCAL			RMTP1			RTOE			RMTP5		
		X1	Y1	Z1	X2	Y2	Z2	X3	Y3	Z3	X4	Y4	Z4	X5	Y5	Z5	X6	Y6	Z6	X7	Y7	Z7	X8	Y8	Z8	X9	Y9	Z9	X10	Y10	Z10	X11	Y11	Z11	X12	Y12	Z12	X13	Y13	Z13	X14	Y14	Z14	X15	Y15	Z15	X16	Y16	Z16	X17	Y17	Z17	X18	Y18	Z18	X19	Y19	Z19	X20	Y20	Z20	X21	Y21	Z21	X22	Y22	Z22	X23	Y23	Z23	X24	Y24	Z24	X25	Y25	Z25	X26	Y26	Z26	X27	Y27	Z27	X28	Y28	Z28	X29	Y29	Z29	X30	Y30	Z30	X31	Y31	Z31	X32	Y32	Z32	X33	Y33	Z33	X34	Y34	Z34	X35	Y35	Z35	X36	Y36	Z36

343	1.36800	-373.08102	1013.71362	461.65955	-203.32834	978.07373	350.86307	-298.36954	793.83710	267.14081	-293.29156	731.64191	258.26605	-224.29628	791.04675	280.18750	-228.28709	730.68018	269.90002	-301.53891	480.70099	267.86420	-308.96219	445.06659	378.33783	-373.56360	376.08972	234.70506	-366.20819	333.01059	230.20445	-309.15668	382.12997	232.69220	-312.03497	338.17505	227.70528	-330.73642	92.14425	237.49924	-322.28815	103.48771	315.03107	-392.40475	65.63727	282.50705	-219.92546	31.94703	202.40938	-166.04042	56.97202	268.74969	-192.21185	37.93127	314.80869	-370.13010	1011.50720	533.27930	-183.25800	972.49268	590.47021	-276.44376	789.45270	688.60004	-268.90570	726.77258	690.80078	-204.04208	790.53992	668.42822	-206.86311	727.84436	674.64771	-289.20590	463.15631	677.78546	-285.54422	460.30978	567.51593	-347.55972	393.27765	708.78912	-345.49167	345.47641	715.72241	-287.37280	385.83429	698.81726	-293.99118	340.16342	706.36407	-323.50223	90.61256	696.02277	-315.68179	105.84536	618.09790	-388.20172	62.47207	656.04535	-184.56418	35.94446	610.44843	-163.77492	53.99000	655.84601	-205.64786	28.18711	723.97705
344	1.37200	-373.05313	1013.70026	461.66922	-203.31563	978.06305	350.86502	-298.37628	793.83081	267.14999	-293.28375	731.62360	258.26691	-224.28096	791.06708	280.20358	-228.28470	730.69257	269.90924	-301.55222	480.70367	267.87411	-308.94299	445.04999	378.32474	-373.58307	376.10825	234.71312	-366.21082	333.03644	230.24948	-309.13159	382.12817	232.70747	-312.03397	338.15509	227.72884	-330.73068	92.15289	237.49789	-322.27316	103.47173	315.01401	-392.42627	65.66738	282.50711	-219.90297	31.96019	202.41940	-166.03009	56.92526	268.74442	-192.18843	37.95599	314.80676	-370.11734	1011.50787	533.27319	-183.26518	972.51434	590.47595	-276.41864	789.45215	688.60657	-268.84784	726.77112	690.80884	-204.05696	790.54102	668.42676	-206.83333	727.84473	674.64044	-289.19339	463.15491	677.78253	-285.52582	460.32108	567.51453	-347.56415	393.30090	708.77679	-345.52179	345.47974	715.70215	-287.39865	385.81070	698.82416	-293.95895	340.15787	706.35065	-323.50006	90.61412	696.00299	-315.69528	105.84171	618.10706	-388.20651	62.49580	656.04468	-184.55408	35.94864	610.46765	-163.76172	53.98176	655.84790	-205.63394	28.17803	723.97540
345	1.37600	-373.08612	1013.69836	461.66068	-203.33490	978.08386	350.85590	-298.40219	793.84058	267.14713	-293.30118	731.64508	258.26337	-224.29315	791.06055	280.19171	-228.28525	730.72083	269.92389	-301.55017	480.69479	267.86499	-308.96255	445.04492	378.32782	-373.58539	376.10709	234.70209	-366.18677	333.00934	230.26268	-309.14130	382.14310	232.72646	-312.01138	338.15359	227.74284	-330.75323	92.16051	237.49409	-322.27023	103.44994	315.04147	-392.40802	65.67728	282.48706	-219.90820	31.96216	202.42175	-166.06990	56.94381	268.74701	-192.19167	37.94894	314.80740	-370.15030	1011.51288	533.25610	-183.25232	972.51917	590.47266	-276.41818	789.45270	688.61566	-268.86649	726.75995	690.81146	-204.03647	790.53534	668.43469	-206.83870	727.83197	674.65558	-289.19757	463.15555	677.77924	-285.51059	460.32962	567.48962	-347.53622	393.28790	708.78235	-345.49106	345.45605	715.68481	-287.37152	385.80634	698.82867	-293.95322	340.15808	706.36029	-323.50479	90.60275	696.01196	-315.68631	105.85959	618.09918	-388.21439	62.50873	656.03290	-184.53828	35.95460	610.46869	-163.75607	53.99856	655.85370	-205.61748	28.17549	723.96539
346	1.38000	-373.07828	1013.69525	461.66565	-203.32637	978.06995	350.85782	-298.40952	793.83905	267.16141	-293.34314	731.64026	258.27728	-224.30479	791.07239	280.18805	-228.28502	730.71368	269.91620	-301.52719	480.70602	267.87747	-308.96707	445.02484	378.34299	-373.58405	376.11850	234.72971	-366.19415	333.03146	230.31853	-309.13168	382.15128	232.72774	-312.01590	338.17261	227.75102	-330.72180	92.15327	237.51172	-322.26889	103.44855	315.05286	-392.39648	65.65193	282.51022	-219.88565	31.98257	202.42760	-166.06226	56.90208	268.75629	-192.18777	37.92481	314.81555	-370.15018	1011.50549	533.26697	-183.26819	972.49225	590.49805	-276.41516	789.43127	688.61749	-268.88217	726.74512	690.84717	-204.03519	790.50793	668.42590	-206.83900	727.82117	674.62915	-289.19113	463.13922	677.78241	-285.53922	460.30447	567.55585	-347.50015	393.27411	708.80383	-345.47620	345.43451	715.70276	-287.35370	385.79892	698.84650	-293.95630	340.13620	706.37109	-323.49747	90.60585	696.01984	-315.66919	105.85081	618.09021	-388.18842	62.45546	656.07532	-184.53395	35.96507	610.46130	-163.74127	54.00858	655.84991	-205.58978	28.16109	723.97491
347	1.38400	-373.05185	1013.70026	461.68488	-203.34712	978.06720	350.86972	-298.42401	793.82709	267.17871	-293.34821	731.64630	258.27673	-224.31076	791.10376	280.18039	-228.29449	730.73999	269.93152	-301.54898	480.71347	267.87738	-308.98471	445.03653	378.33176	-373.59628	376.11279	234.73833	-366.22974	333.04068	230.27710	-309.13831	382.16956	232.71341	-312.04208	338.16794	227.72156	-330.71802	92.16868	237.49940	-322.23975	103.44547	315.06381	-392.38528	65.63813	282.52539	-219.88556	31.99339	202.41531	-167.02527	56.41669	269.59302	-192.19528	37.91112	314.82715	-370.20544	1011.51019	533.28363	-183.29265	972.49042	590.48566	-276.40668	789.43561	688.62189	-268.87982	726.75067	690.84332	-204.03215	790.51752	668.43115	-206.83755	727.81744	674.64062	-289.18381	463.13422	677.79504	-285.53702	460.32150	567.50079	-347.51633	393.24310	708.81842	-345.46649	345.42056	715.73193	-287.36502	385.80060	698.83582	-293.96927	340.13229	706.36536	-323.48938	90.60183	696.00775	-315.66565	105.86179	618.09100	-388.24069	62.45611	656.11346	-184.51025	35.98750	610.45679	-163.73175	54.01903	655.85156	-205.60693	28.17339	723.97467
348	1.38800	-373.09955	1013.70013	461.71164	-203.35353	978.05756	350.87527	-298.40808	793.83057	267.17673	-293.33795	731.63971	258.28299	-224.33417	791.09540	280.18176	-228.32133	730.72076	269.92831	-301.53491	480.70743	267.88580	-309.00317	445.03302	378.33746	-373.56796	376.11841	234.74345	-366.21765	333.02289	230.25235	-309.10965	382.17545	232.71219	-312.01837	338.18512	227.73045	-330.67728	92.16774	237.49724	-322.23508	103.45234	315.06555	-392.37003	65.64135	282.54874	-219.87500	31.99998	202.41655	-166.99347	56.36293	269.57919	-192.20299	37.90478	314.81274	-370.16962	1011.50806	533.30164	-183.30154	972.47974	590.49042	-276.39771	789.44824	688.64368	-268.85620	726.75952	690.85352	-204.04553	790.51770	668.45081	-206.87575	727.82312	674.66211	-289.18518	463.14410	677.79993	-285.55823	460.28110	567.52722	-347.49902	393.23987	708.83197	-345.45850	345.41898	715.73035	-287.40097	385.77451	698.84741	-293.98373	340.11731	706.39557	-323.48193	90.60928	696.03510	-315.64981	105.85928	618.10907	-388.21204	62.44379	656.09656	-184.50711	35.97969	610.45941	-163.72339	54.03379	655.85181	-205.61780	28.16168	723.98474
349	1.39200	-373.10214	1013.69861	461.70374	-203.37614	978.06573	350.85794	-298.41568	793.83691	267.18362	-293.35864	731.64429	258.29608	-224.33769	791.08777	280.20108	-228.29604	730.73431	269.93228	-301.52194	480.71921	267.87393	-309.00015	445.02899	378.34744	-373.58688	376.12741	234.76109	-366.19321	332.96478	230.28709	-309.12982	382.14563	232.71700	-312.03888	338.14902	227.75182	-330.71329	92.15896	237.50153	-322.24667	103.45654	315.07397	-392.36624	65.66145	282.54565	-219.88092	31.99603	202.42270	-167.07008	56.33257	269.63330	-192.22131	37.90418	314.82880	-370.19495	1011.50323	533.29779	-183.33328	972.47845	590.47766	-276.40042	789.44385	688.64661	-268.85516	726.77661	690.85370	-204.05818	790.52496	668.45154	-206.87779	727.82800	674.66962	-289.16672	463.14136	677.80298	-285.53610	460.28683	567.50513	-347.51578	393.23865	708.84338	-345.47934	345.42374	715.74573	-287.41052	385.77029	698.84448	-293.97595	340.13940	706.38293	-323.48080	90.61000	696.04797	-315.67447	105.87274	618.10730	-388.21530	62.42105	656.09076	-184.53352	35.98501	610.46289	-163.74620	54.01484	655.83020	-205.62267	28.17471	723.98163
350	1.39600	-373.13553	1013.69910	461.72833	-203.39009	978.06329	350.85355	-298.38660	793.84222	267.17712	-293.33868	731.63318	258.30121	-224.33276	791.05212	280.19525	-228.29927	730.71094	269.91684	-301.51358	480.70142	267.88144	-308.98492	445.04428	378.36307	-373.55380	376.10596	234.75410	-366.17517	332.94556	230.25217	-309.13803	382.13062	232.70854	-312.06354	338.14352	227.70621	-330.72028	92.15205	237.51295	-322.24429	103.47407	315.07166	-392.36404	65.64367	282.52850	-219.88766	31.97731	202.41223	-166.95776	56.41507	269.54276	-192.22417	37.89104	314.80853	-370.20486	1011.50708	533.31244	-183.34476	972.47552	590.47119	-276.43097	789.46332	688.64746	-268.89609	726.77924	690.84998	-204.08614	790.52075	668.44666	-206.89894	727.83380	674.63702	-289.15439	463.15222	677.79913	-285.53659	460.26285	567.51904	-347.50839	393.25696	708.84558	-345.44907	345.43250	715.74176	-287.42233	385.76035	698.84253	-293.95944	340.13998	706.37842	-323.47534	90.61888	696.04639	-315.65771	105.85907	618.10077	-388.21313	62.41188	656.05280	-184.54959	35.97350	610.46399	-163.74208	54.00537	655.82812	-205.61613	28.18571	723.97198
